<svg width="151" height="32" viewBox="0 0 151 32" fill="none" xmlns="http://www.w3.org/2000/svg">
<path d="M44.8997 23.9982L35.4082 13.5186V23.9982H32.8438V8.05469H34.2861L43.3824 18.0467V8.05469H45.9468V23.9982H44.8997Z" fill="#ED1515"/>
<path d="M28.5879 8.05469H26.0234V23.9982H28.5879V8.05469Z" fill="#ED1515"/>
<path d="M49.8672 8.05469H54.4039C56.4054 8.05469 58.06 8.44832 59.3689 9.23687C60.6765 10.0254 61.6296 11.04 62.2294 12.2806C62.8279 13.5224 63.1279 14.843 63.1279 16.2449C63.1279 17.7927 62.7657 19.154 62.0426 20.3298C61.3195 21.5056 60.3512 22.411 59.1389 23.0459C57.9265 23.6808 56.6036 23.9982 55.1715 23.9982H49.8672V8.05469ZM54.7114 21.545C55.8513 21.545 56.8553 21.3342 57.7257 20.9101C58.595 20.4873 59.2748 19.8625 59.7641 19.0384C60.2533 18.2131 60.4986 17.2239 60.4986 16.0709C60.4986 14.8151 60.2317 13.7675 59.698 12.9282C59.1643 12.0888 58.4844 11.4717 57.6597 11.0781C56.8336 10.6844 55.9822 10.4863 55.1066 10.4863H52.4329V21.5463H54.7127L54.7114 21.545Z" fill="#ED1515"/>
<path d="M73.2414 15.7661C72.6645 15.4308 71.9312 15.0994 71.062 14.7807C70.2754 14.481 69.626 14.203 69.1304 13.9553C68.6501 13.7154 68.2498 13.4093 67.9422 13.0474C67.6423 12.6957 67.4974 12.2767 67.4974 11.7662C67.4974 11.0361 67.7732 10.4545 68.3413 9.9885C68.9118 9.51995 69.6896 9.28249 70.6528 9.28249C71.2399 9.28249 71.8512 9.36757 72.4675 9.53645C73.0889 9.70534 73.6608 9.91358 74.1704 10.1536L74.3267 10.2272L74.8934 9.09329L74.7359 9.01457C74.15 8.72251 73.4714 8.47744 72.7204 8.28697C71.9655 8.09651 71.2272 8 70.5206 8C69.6921 8.01524 68.9284 8.18412 68.251 8.50411C67.5673 8.82664 67.0273 9.28376 66.6422 9.86406C66.2572 10.4456 66.0602 11.1224 66.0602 11.8754C66.0602 12.6284 66.2661 13.3027 66.6702 13.822C67.0666 14.3299 67.5623 14.7426 68.1456 15.0486C68.7149 15.347 69.443 15.6607 70.3097 15.9769C71.0773 16.2613 71.7215 16.5457 72.2235 16.82C72.7102 17.0867 73.1207 17.4447 73.4435 17.8828C73.7586 18.312 73.9175 18.8517 73.9175 19.4866C73.9175 20.1659 73.7434 20.7538 73.399 21.2325C73.0521 21.7163 72.5959 22.082 72.0443 22.3195C70.8472 22.8363 69.4748 22.7918 68.0553 22.2408C67.2954 21.9462 66.6473 21.597 66.1288 21.2046L65.9687 21.084L65.2888 22.2661L65.4273 22.3576C67.0501 23.4242 68.7149 23.9651 70.372 23.9651C71.3327 23.9651 72.2006 23.7772 72.9504 23.4064C73.7065 23.0331 74.3012 22.4973 74.7219 21.8166C75.1412 21.1348 75.3547 20.3437 75.3547 19.4637C75.3547 18.538 75.1476 17.766 74.7397 17.1692C74.3381 16.5813 73.8349 16.1089 73.244 15.7648" fill="#ED1515"/>
<path d="M109.848 8.05469H108.434V23.9982H109.848V8.05469Z" fill="#ED1515"/>
<path d="M142.575 8.05469H132.158V9.4248H136.638L136.659 23.9982H138.074L138.052 9.4248H142.575V8.05469Z" fill="#ED1515"/>
<path d="M88.5508 9.19623C87.6739 8.43816 86.4807 8.05469 85.0015 8.05469H79.2283V23.9982H80.5194V17.1947H84.8935C86.0054 17.1947 86.9458 16.975 87.6892 16.5407C88.4339 16.1065 88.9917 15.5262 89.3463 14.8163C89.6983 14.1116 89.8775 13.337 89.8775 12.5155C89.8775 11.0743 89.4302 9.95684 88.5495 9.19497M88.2598 14.0799C88.031 14.5979 87.6345 15.0424 87.0792 15.403C86.5239 15.7636 85.7881 15.9465 84.8909 15.9465L80.5563 15.9427V15.9465H80.5169V9.30036H80.5563V9.30417L85.1069 9.30036C86.21 9.30036 87.0792 9.59876 87.6892 10.1867C88.2979 10.7733 88.6067 11.5568 88.6067 12.5155C88.6067 13.0297 88.4898 13.5567 88.2598 14.0799Z" fill="#ED1515"/>
<path d="M17.6661 8.05469L11.6896 22.0834L8.52148 14.6475L7.04102 18.1216L9.54446 23.9982H13.8334L19.1465 11.5288V23.9982H21.7707V8.05469H17.6661Z" fill="#ED1515"/>
<path d="M10.0033 8.05469H7.04236L0.25 23.9982H3.21093L8.52283 11.5288L11.6909 18.9648L13.1714 15.4906L10.0033 8.05469Z" fill="#ED1515"/>
<path d="M102.822 23.9995H104.209L104.198 23.9805L99.8798 17.1185C100.538 17.0207 101.119 16.829 101.611 16.542C102.355 16.1065 102.913 15.5274 103.268 14.8176C103.621 14.1129 103.799 13.3383 103.799 12.5167C103.799 11.0755 103.352 9.95811 102.471 9.19624C101.594 8.43817 100.401 8.05469 98.9216 8.05469H93.1484V23.9982H94.4396V17.1947H98.4972L102.81 23.9792L102.822 23.9982V23.9995ZM94.4789 15.9452V15.949H94.4396V9.3029H94.4789V9.30671L99.0296 9.3029C100.133 9.3029 101.002 9.6013 101.612 10.1892C102.221 10.7771 102.529 11.5593 102.529 12.518C102.529 13.0323 102.412 13.5593 102.182 14.0824C101.954 14.6005 101.557 15.0449 101.002 15.4055C100.447 15.7662 99.7108 15.949 98.8136 15.949L94.4789 15.9452Z" fill="#ED1515"/>
<path d="M127.497 8.04297V21.4774L123.994 17.2668L121.751 14.5697L116.547 8.28169V8.28042L116.402 8.10646L116.359 8.05567H115.144L115.121 23.9992H116.547V10.5661L121.167 16.1163L127.796 23.9878H128.9L128.923 8.04297H127.497Z" fill="#ED1515"/>
</svg>
